{"title":"Vojna Akademija S02E01","uid":9628916,"size":330443080,"categoryP":"video","categoryS":"tv_shows","magnet":"?xt=urn:btih:1c6786d8b5f362612ae0d403f45f6829efa0b6f9&amp;dn=Vojna+Akademija+S02E01&amp;tr=udp%3A%2F%2Ftracker.openbittorrent.com%3A80&amp;tr=udp%3A%2F%2Fopen.demonii.com%3A1337&amp;tr=udp%3A%2F%2Ftracker.coppersurfer.tk%3A6969&amp;tr=udp%3A%2F%2Fexodus.desync.com%3A6969","seeders":1,"leechers":0,"uploader":"myname512","files":1,"time":1392643161,"description":"IMDb 7.4 &lt;a href=&quot;\nhttp://www.imdb.com/title/tt1880898/?ref_=nv_sr_1&quot; rel=&quot;nofollow&quot; target=&quot;_NEW&quot;&gt;\nhttp://www.imdb.com/title/tt1880898/?ref_=nv_sr_1&lt;/a&gt;\n\nVojna Akademija Sezona 2 Epizoda 1\n\nFormat                                   : AVI\nFormat/Info                              : Audio Video Interleave\nFile size                                : 315 MiB\nDuration                                 : 47mn 14s\nOverall bit rate                         : 933 Kbps\nMovie name                               : Vojna.Akademija.S02E01-daredule\nWriting application                      : VirtualDub build 35390/release\nCopyright                                : daredule AKA tttrojannnn\nComment                                  : Ripped by daredule\n\nVideo\nID                                       : 0\nFormat                                   : MPEG-4 Visual\nFormat profile                           : Advanced Simple@L5\nFormat settings, BVOP                    : 1\nFormat settings, QPel                    : No\nFormat settings, GMC                     : No warppoints\nFormat settings, Matrix                  : Default (H.263)\nMuxing mode                              : Packed bitstream\nCodec ID                                 : XVID\nCodec ID/Hint                            : XviD\nDuration                                 : 47mn 14s\nBit rate                                 : 795 Kbps\nWidth                                    : 720 pixels\nHeight                                   : 408 pixels\nDisplay aspect ratio                     : 16:9\nFrame rate                               : 25.000 fps\nColor space                              : YUV\nChroma subsampling                       : 4:2:0\nBit depth                                : 8 bits\nScan type                                : Progressive\nCompression mode                         : Lossy\nBits/(Pixel*Frame)                       : 0.108\nStream size                              : 269 MiB (85%)\nWriting library                          : XviD 64\n\nAudio\nID                                       : 1\nFormat                                   : MPEG Audio\nFormat version                           : Version 1\nFormat profile                           : Layer 3\nMode                                     : Joint stereo\nMode extension                           : MS Stereo\nCodec ID                                 : 55\nCodec ID/Hint                            : MP3\nDuration                                 : 47mn 14s\nBit rate mode                            : Constant\nBit rate                                 : 128 Kbps\nChannel count                            : 2 channels\nSampling rate                            : 48.0 KHz\nCompression mode                         : Lossy\nStream size                              : 43.2 MiB (14%)\nAlignment                                : Split accross interleaves\nInterleave, duration                     : 40 ms (1.00 video frame)\nInterleave, preload duration             : 500 ms\nLanguage                                 : Undefined\n\n","torrent":{"xt":"urn:btih:1c6786d8b5f362612ae0d403f45f6829efa0b6f9","amp;dn":"Vojna+Akademija+S02E01","amp;tr":["udp%3A%2F%2Ftracker.openbittorrent.com%3A80","udp%3A%2F%2Fopen.demonii.com%3A1337","udp%3A%2F%2Ftracker.coppersurfer.tk%3A6969","udp%3A%2F%2Fexodus.desync.com%3A6969"],"infoHash":"1c6786d8b5f362612ae0d403f45f6829efa0b6f9","infoHashBuffer":{"type":"Buffer","data":[28,103,134,216,181,243,98,97,42,224,212,3,244,95,104,41,239,160,182,249]},"announce":[],"urlList":[]}}